# ProBuilder 5.0.6
# https://unity3d.com/unity/features/worldbuilding/probuilder
# 12/9/2023 8:55:48 PM

mtllib ./L_shaped_Building_.mtl
o L shaped Building 

g L shaped Building 
v 23.43892 -2.184554 6.346113
v -13.11507 -2.184554 6.346109
v 23.43892 2.184554 6.346113
v -13.11507 2.184554 6.346109
v -13.11507 -2.184554 3.457441
v -13.11507 -2.184554 -3.457441
v -13.11507 2.184554 3.457441
v -13.11507 2.184554 -3.457441
v 23.43892 -2.184554 -3.457441
v 23.43892 2.184554 -3.457441
v 52.68927 -2.184554 -46.82051
v 52.68927 -2.184554 -39.90563
v 52.68927 2.184554 -46.82051
v 52.68927 2.184554 -39.90563
v 23.43892 2.184554 3.457443
v 23.43892 -2.184554 3.457443
v 37.72527 -2.184554 -3.457441
v 37.72527 -2.184554 3.457443
v 25.86462 -0.2374505 -2.662302
v 25.86462 -2.212257 -2.662302
v 28.89315 -0.2374505 -2.662302
v 28.89315 -2.212257 -2.662302
v 37.72527 -2.184554 6.346113
v 37.72527 2.184554 6.346113
v 37.72527 2.184554 3.457443
v 37.72527 2.184554 -3.457441
v 44.38475 -2.184554 -3.457441
v 52.68927 -2.184554 3.457443
v 52.68927 2.184554 3.457443
v 44.38475 2.184554 -3.457441
v 38.58372 -0.009157896 -11.54742
v 38.58372 -2.179915 -11.54742
v 38.58372 -0.009157896 -14.56878
v 38.58372 -2.179915 -14.56878
v 37.72527 2.184554 -46.82051
v 37.72527 -2.184554 -46.82051
v 25.86462 -0.2374505 -3.457441
v 25.86462 -2.212257 -3.457441
v 28.89315 -0.2374505 -3.457441
v 28.89315 -2.212257 -3.457441
v 37.72527 -0.009157896 -11.54742
v 37.72527 -2.179915 -11.54742
v 37.72527 -0.009157896 -14.56878
v 37.72527 -2.179915 -14.56878
v 37.72527 0 -46.82051
v 37.72527 1.087698 -30.69465
v 37.72527 0.02565753 -38.36874
v 37.72527 -2.182235 -38.36874
v 37.72527 -2.181075 -32.62892
v 37.72527 -1.364752 -38.36874
v 37.72527 -1.094537 -14.56878
v 37.72527 -0.01194918 -32.62892
v 37.72527 -1.637226 -14.56878
v 37.72527 -1.500989 -32.62892
v 38.69483 -2.181075 -33.04139
v 38.69483 -2.182235 -37.9879
v 38.69483 -1.364752 -37.9879
v 38.69483 -1.500989 -33.04139
v 38.69483 0.02565753 -37.9879
v 38.69483 -0.01194918 -33.04139

vt 23.43892 -2.184554
vt -13.11507 -2.184554
vt 23.43892 2.184554
vt -13.11507 2.184554
vt 3.457441 -2.184554
vt -3.457441 -2.184554
vt 3.457441 2.184554
vt -3.457441 2.184554
vt 13.11507 -2.184554
vt -23.43892 -2.184554
vt 13.11507 2.184554
vt -23.43892 2.184554
vt 46.82051 -2.184554
vt 39.90563 -2.184554
vt 46.82051 2.184554
vt 39.90563 2.184554
vt -23.43892 3.457443
vt 13.11507 3.457441
vt -23.43892 -3.457441
vt 13.11507 -3.457441
vt 23.43892 -3.457441
vt -13.11507 -3.457441
vt 23.43892 3.457443
vt -13.11507 3.457441
vt 37.72527 -3.457441
vt 37.72527 3.457443
vt -25.86462 -0.2374505
vt -25.86462 -2.212257
vt -28.89315 -0.2374505
vt -28.89315 -2.212257
vt 37.72527 -2.184554
vt 37.72527 2.184554
vt -37.72527 3.457443
vt -37.72527 -3.457441
vt 44.38475 -3.457441
vt 52.68927 3.457443
vt 52.68927 -2.184554
vt 52.68927 2.184554
vt -52.68927 3.457443
vt -44.38475 -3.457441
vt 52.68927 -46.82051
vt 52.68927 -39.90563
vt -52.68927 -39.90563
vt -52.68927 -46.82051
vt -11.54742 -0.009157896
vt -11.54742 -2.179915
vt -14.56878 -0.009157896
vt -14.56878 -2.179915
vt -37.72527 -46.82051
vt 37.72527 -46.82051
vt -37.72527 2.184554
vt 25.86462 -2.212257
vt 28.89315 -2.212257
vt -37.72527 -2.184554
vt 3.457441 -0.2374505
vt 3.457441 -2.212257
vt 2.662302 -0.2374505
vt 2.662302 -2.212257
vt 28.89315 -3.457441
vt 25.86462 -3.457441
vt 28.89315 -2.662302
vt 25.86462 -2.662302
vt -25.86462 -3.457441
vt -28.89315 -3.457441
vt -25.86462 -2.662302
vt -28.89315 -2.662302
vt -3.457441 -2.212257
vt -3.457441 -0.2374505
vt -2.662302 -2.212257
vt -2.662302 -0.2374505
vt -37.72527 -0.009157896
vt -37.72527 -2.179915
vt -38.58372 -0.009157896
vt -38.58372 -2.179915
vt 37.72527 -14.56878
vt 37.72527 -11.54742
vt 38.58372 -14.56878
vt 38.58372 -11.54742
vt -37.72527 -11.54742
vt -37.72527 -14.56878
vt -38.58372 -11.54742
vt -38.58372 -14.56878
vt 6.346109 -2.184554
vt 6.346109 2.184554
vt 37.72527 6.346113
vt 23.43892 6.346113
vt -23.43892 6.346113
vt -37.72527 6.346113
vt -6.346113 2.184554
vt -6.346113 -2.184554
vt -13.11507 6.346109
vt 13.11507 6.346109
vt -37.72527 0
vt -52.68927 -2.184554
vt -52.68927 2.184554
vt -46.82051 2.184554
vt -30.69465 1.087698
vt -46.82051 0
vt -38.36874 0.02565753
vt -46.82051 -2.184554
vt -38.36874 -2.182235
vt -32.62892 -2.181075
vt -38.36874 -1.364752
vt -14.56878 -1.094537
vt -32.62892 -0.01194918
vt -14.56878 -1.637226
vt -32.62892 -1.500989
vt -33.04139 -2.181075
vt -37.9879 -2.182235
vt -37.9879 -1.364752
vt -33.04139 -1.500989
vt -37.9879 0.02565753
vt -33.04139 -0.01194918
vt 38.58372 -2.179915
vt 37.72527 -2.179915
vt 37.72527 -1.637226
vt 37.72527 -1.094537
vt 37.72527 -0.009157896
vt 38.58372 -0.009157896
vt -47.48756 -0.01194918
vt -47.48756 -1.500989
vt -48.54121 -0.01194918
vt -48.54121 -1.500989
vt 21.08568 -1.364752
vt 21.08568 0.02565753
vt 22.12736 -1.364752
vt 22.12736 0.02565753
vt 37.7252 -38.36745
vt 37.72511 -32.62751
vt 38.69476 -37.9866
vt 38.69467 -33.03995
vt -47.48756 -2.181075
vt -48.54121 -2.181075
vt -37.72508 -32.62936
vt -37.72508 -38.36919
vt -38.69464 -33.04183
vt -38.69464 -37.98834
vt 21.08568 -2.182235
vt 22.12736 -2.182235

vn -1.043579E-07 0 1
vn -1 0 0
vn 0 0 -1
vn 1 0 0
vn 0 1 0
vn 0 -1 0
vn 0 -0.5 0
vn 0 0 0
vn -0.3914622 0 -0.9201942
vn -0.3656063 0 0.9307696
vn 0.00257352 -0.9999753 -0.006551733
vn -0.0003303206 -0.9999706 -0.007077072
vn -0.003234162 -0.9999659 -0.007602411

usemtl ProBuilderDefault
f 45/93/3 35/51/3 13/95/3
f 11/94/3 45/93/3 13/95/3
f 11/94/3 36/54/3 45/93/3
f 43/47/2 41/45/2 26/8/2
f 46/97/2 43/47/2 26/8/2
f 35/96/2 46/97/2 26/8/2
f 42/46/2 44/48/2 17/6/2
f 44/48/2 49/102/2 17/6/2
f 49/102/2 48/101/2 17/6/2
f 48/101/2 36/100/2 17/6/2
f 36/100/2 48/101/2 50/103/2
f 45/98/2 36/100/2 50/103/2
f 47/99/2 45/98/2 50/103/2
f 46/97/2 47/99/2 52/105/2
f 52/105/2 51/104/2 43/47/2
f 46/97/2 52/105/2 43/47/2
f 53/116/1 44/115/1 34/114/1
f 51/117/1 53/116/1 34/114/1
f 33/119/1 51/117/1 34/114/1
f 33/119/1 43/118/1 51/117/1
f 4/4/1 2/2/1 1/1/1
f 1/1/1 3/3/1 4/4/1
f 8/8/2 6/6/2 5/5/2
f 5/5/2 7/7/2 8/8/2
f 10/12/3 9/10/3 6/9/3
f 6/9/3 8/11/3 10/12/3
f 14/16/4 12/14/4 11/13/4
f 11/13/4 13/15/4 14/16/4
f 8/20/5 7/18/5 15/17/5
f 15/17/5 10/19/5 8/20/5
f 5/24/6 6/22/6 9/21/6
f 9/21/6 16/23/6 5/24/6
f 18/26/6 16/23/6 9/21/6
f 9/21/6 17/25/6 18/26/6
f 22/30/3 20/28/3 19/27/3
f 19/27/3 21/29/3 22/30/3
f 24/32/1 3/3/1 1/1/1
f 1/1/1 23/31/1 24/32/1
f 26/34/5 10/19/5 15/17/5
f 15/17/5 25/33/5 26/34/5
f 28/36/6 18/26/6 17/25/6
f 17/25/6 27/35/6 28/36/6
f 29/38/1 25/32/1 18/31/1
f 18/31/1 28/37/1 29/38/1
f 30/40/5 26/34/5 25/33/5
f 25/33/5 29/39/5 30/40/5
f 12/42/8 28/36/7 27/35/6
f 27/35/6 11/41/7 12/42/8
f 14/16/4 29/8/4 28/6/4
f 28/6/4 12/14/4 14/16/4
f 13/44/5 30/40/5 29/39/5
f 29/39/5 14/43/5 13/44/5
f 34/48/2 32/46/2 31/45/2
f 31/45/2 33/47/2 34/48/2
f 35/49/5 26/34/5 30/40/5
f 30/40/5 13/44/5 35/49/5
f 11/41/6 27/35/6 17/25/6
f 17/25/6 36/50/6 11/41/6
f 38/28/3 9/10/3 10/12/3
f 10/12/3 37/27/3 38/28/3
f 37/27/3 10/12/3 26/51/3
f 26/51/3 39/29/3 37/27/3
f 40/53/1 17/31/1 9/1/1
f 9/1/1 38/52/1 40/53/1
f 39/29/3 26/51/3 17/54/3
f 17/54/3 40/30/3 39/29/3
f 20/58/4 38/56/4 37/55/4
f 37/55/4 19/57/4 20/58/4
f 19/62/6 37/60/6 39/59/6
f 39/59/6 21/61/6 19/62/6
f 22/66/5 40/64/5 38/63/5
f 38/63/5 20/65/5 22/66/5
f 21/70/2 39/68/2 40/67/2
f 40/67/2 22/69/2 21/70/2
f 42/46/2 17/6/2 26/8/2
f 26/8/2 41/45/2 42/46/2
f 32/74/3 42/72/3 41/71/3
f 41/71/3 31/73/3 32/74/3
f 31/78/6 41/76/6 43/75/6
f 43/75/6 33/77/6 31/78/6
f 34/82/5 44/80/5 42/79/5
f 42/79/5 32/81/5 34/82/5
f 4/84/2 7/7/2 5/5/2
f 5/5/2 2/83/2 4/84/2
f 1/86/6 16/23/6 18/26/6
f 18/26/6 23/85/6 1/86/6
f 24/88/5 25/33/5 15/17/5
f 15/17/5 3/87/5 24/88/5
f 23/90/4 18/6/4 25/8/4
f 25/8/4 24/89/4 23/90/4
f 2/91/6 5/24/6 16/23/6
f 16/23/6 1/86/6 2/91/6
f 3/87/5 15/17/5 7/18/5
f 7/18/5 4/92/5 3/87/5
f 45/98/2 47/99/2 46/97/2
f 46/97/2 35/96/2 45/98/2
f 54/107/2 53/106/2 51/104/2
f 51/104/2 52/105/2 54/107/2
f 49/102/2 44/48/2 53/106/2
f 53/106/2 54/107/2 49/102/2
f 56/109/2 55/108/2 58/111/2
f 58/111/2 57/110/2 56/109/2
f 57/110/2 58/111/2 60/113/2
f 60/113/2 59/112/2 57/110/2
f 58/123/9 54/121/9 52/120/9
f 52/120/9 60/122/9 58/123/9
f 59/127/10 47/125/10 50/124/10
f 50/124/10 57/126/10 59/127/10
f 60/131/13 52/129/12 47/128/11
f 47/128/11 59/130/12 60/131/13
f 55/133/9 49/132/9 54/121/9
f 54/121/9 58/123/9 55/133/9
f 56/137/5 48/135/5 49/134/5
f 49/134/5 55/136/5 56/137/5
f 57/126/10 50/124/10 48/138/10
f 48/138/10 56/139/10 57/126/10

